<svg xmlns="http://www.w3.org/2000/svg" viewBox="0 0 170 170" width="16" height="16">
  <path d="M150.37 130.25c-2.45 5.66-5.35 10.87-8.71 15.66-4.58 6.53-8.33 11.05-11.22 13.56-4.48 4.12-9.28 6.23-14.42 6.35-3.69 0-8.14-1.05-13.32-3.18-5.19-2.12-9.97-3.17-14.34-3.17-4.58 0-9.49 1.05-14.75 3.17-5.26 2.13-9.5 3.24-12.74 3.35-4.37.13-9.13-1.9-14.27-6.08-3.35-2.79-7.22-7.5-11.61-14.13-5.25-8-9.45-17.39-12.59-28.19-3.14-10.8-4.7-21.04-4.7-30.71 0-14.27 3.52-25.59 10.57-33.97 7.04-8.39 15.8-12.65 26.27-12.79 5.37 0 10.96 1.57 16.78 4.7 5.82 3.14 9.49 4.7 11.02 4.7 1.25 0 5.07-1.74 11.48-5.22 6.4-3.48 11.89-5.1 16.48-4.85 15.34.62 26.97 6.23 34.89 16.82-13.78 8.32-20.57 19.8-20.35 34.45.23 11.16 4.3 20.48 12.22 27.95 7.93 7.46 17.47 11.51 28.62 12.16-2.01 6.13-4.7 12.23-8.08 18.29zm-35.03-125.86c0 10.43-3.72 19.5-11.16 27.22-7.44 7.72-16.17 11.83-26.22 12.33-.23-1.01-.34-2.13-.34-3.36 0-9.97 3.86-18.99 11.57-27.06 7.71-8.07 16.7-12.33 26.97-12.79 0 1.23.18 2.45.18 3.66z" fill="#1A1F26"/>
</svg>
